<svg width="158" height="33" viewBox="0 0 158 33" fill="none" xmlns="http://www.w3.org/2000/svg">
<path opacity="0.8" fill-rule="evenodd" clip-rule="evenodd" d="M16 5.62001C9.99116 5.62001 5.12002 10.4912 5.12002 16.5C5.12002 22.5089 9.99116 27.38 16 27.38C22.0089 27.38 26.88 22.5089 26.88 16.5C26.88 10.4912 22.0089 5.62001 16 5.62001ZM16 0.500017C7.16346 0.500016 2.07679e-05 7.66346 1.99954e-05 16.5C1.92229e-05 25.3366 7.16346 32.5 16 32.5C24.8366 32.5 32 25.3366 32 16.5C32 7.66346 24.8366 0.500018 16 0.500017Z" fill="white"/>
<path fill-rule="evenodd" clip-rule="evenodd" d="M12.8321 6.09138L16.9051 10.1643C20.4042 13.6634 20.4042 19.3366 16.9051 22.8357L12.8321 26.9086C13.175 27.0129 13.5238 27.1006 13.8774 27.1709C15.9879 27.5907 18.1755 27.3753 20.1636 26.5518C22.1516 25.7283 23.8509 24.3338 25.0464 22.5446C26.2419 20.7554 26.88 18.6519 26.88 16.5C26.88 14.3481 26.2419 12.2446 25.0464 10.4554C23.8509 8.66619 22.1516 7.27168 20.1636 6.44819C18.1755 5.62471 15.9879 5.40925 13.8774 5.82906C13.5238 5.8994 13.175 5.98705 12.8321 6.09138ZM7.69989 2.82124C5.88679 3.92139 5.90195 6.40197 7.40156 7.90158L13.2847 13.7847C14.7843 15.2843 14.7843 17.7157 13.2847 19.2153L7.40156 25.0984C5.90195 26.598 5.88678 29.0786 7.69989 30.1788C9.28717 31.1419 11.0384 31.8265 12.8785 32.1926C15.9822 32.8099 19.1993 32.4931 22.1229 31.2821C25.0465 30.0711 27.5454 28.0203 29.3035 25.3891C31.0616 22.7579 32 19.6645 32 16.5C32 13.3355 31.0616 10.2421 29.3035 7.61088C27.5454 4.97969 25.0465 2.92894 22.1229 1.71793C19.1993 0.506932 15.9822 0.190079 12.8785 0.807442C11.0384 1.17346 9.28717 1.85811 7.69989 2.82124Z" fill="white"/>
<path d="M59.81 16.296C59.81 18.116 59.4287 19.7193 58.666 21.106C57.9033 22.4927 56.794 23.576 55.338 24.356C53.8993 25.1187 52.1833 25.5 50.19 25.5H43.664V7.144H50.19C52.1833 7.144 53.8993 7.52533 55.338 8.288C56.794 9.03333 57.9033 10.0993 58.666 11.486C59.4287 12.8553 59.81 14.4587 59.81 16.296ZM49.878 22.224C51.854 22.224 53.3793 21.704 54.454 20.664C55.546 19.624 56.092 18.168 56.092 16.296C56.092 14.4067 55.546 12.942 54.454 11.902C53.3793 10.862 51.854 10.342 49.878 10.342H47.33V22.224H49.878ZM76.1006 17.752C76.1006 18.116 76.0573 18.532 75.9706 19H65.4146C65.4666 20.2827 65.8133 21.2273 66.4546 21.834C67.096 22.4407 67.8933 22.744 68.8466 22.744C69.696 22.744 70.398 22.536 70.9526 22.12C71.5246 21.704 71.8886 21.1407 72.0446 20.43H75.9186C75.728 21.4353 75.3206 22.3367 74.6966 23.134C74.0726 23.9313 73.2666 24.5553 72.2786 25.006C71.308 25.4567 70.2246 25.682 69.0286 25.682C67.6246 25.682 66.3766 25.3873 65.2846 24.798C64.1926 24.1913 63.3433 23.3333 62.7366 22.224C62.13 21.1147 61.8266 19.806 61.8266 18.298C61.8266 16.79 62.13 15.4813 62.7366 14.372C63.3433 13.2453 64.1926 12.3873 65.2846 11.798C66.3766 11.2087 67.6246 10.914 69.0286 10.914C70.45 10.914 71.6893 11.2087 72.7466 11.798C73.8213 12.3873 74.6446 13.202 75.2166 14.242C75.806 15.2647 76.1006 16.4347 76.1006 17.752ZM72.4086 17.388C72.4606 16.2093 72.1486 15.3167 71.4726 14.71C70.814 14.1033 69.9993 13.8 69.0286 13.8C68.0406 13.8 67.2086 14.1033 66.5326 14.71C65.8566 15.3167 65.484 16.2093 65.4146 17.388H72.4086ZM82.3691 6.26V25.5H78.7031V6.26H82.3691ZM99.2315 17.752C99.2315 18.116 99.1882 18.532 99.1015 19H88.5455C88.5975 20.2827 88.9442 21.2273 89.5855 21.834C90.2268 22.4407 91.0242 22.744 91.9775 22.744C92.8268 22.744 93.5288 22.536 94.0835 22.12C94.6555 21.704 95.0195 21.1407 95.1755 20.43H99.0495C98.8588 21.4353 98.4515 22.3367 97.8275 23.134C97.2035 23.9313 96.3975 24.5553 95.4095 25.006C94.4388 25.4567 93.3555 25.682 92.1595 25.682C90.7555 25.682 89.5075 25.3873 88.4155 24.798C87.3235 24.1913 86.4742 23.3333 85.8675 22.224C85.2608 21.1147 84.9575 19.806 84.9575 18.298C84.9575 16.79 85.2608 15.4813 85.8675 14.372C86.4742 13.2453 87.3235 12.3873 88.4155 11.798C89.5075 11.2087 90.7555 10.914 92.1595 10.914C93.5808 10.914 94.8202 11.2087 95.8775 11.798C96.9522 12.3873 97.7755 13.202 98.3475 14.242C98.9368 15.2647 99.2315 16.4347 99.2315 17.752ZM95.5395 17.388C95.5915 16.2093 95.2795 15.3167 94.6035 14.71C93.9448 14.1033 93.1302 13.8 92.1595 13.8C91.1715 13.8 90.3395 14.1033 89.6635 14.71C88.9875 15.3167 88.6148 16.2093 88.5455 17.388H95.5395ZM108.308 10.914C110.163 10.914 111.705 11.4167 112.936 12.422C114.184 13.4273 114.964 14.7967 115.276 16.53H111.402C111.246 15.7673 110.891 15.1693 110.336 14.736C109.781 14.2853 109.079 14.06 108.23 14.06C107.259 14.06 106.445 14.424 105.786 15.152C105.145 15.8627 104.824 16.9113 104.824 18.298C104.824 19.6847 105.145 20.742 105.786 21.47C106.445 22.1807 107.259 22.536 108.23 22.536C109.079 22.536 109.781 22.3193 110.336 21.886C110.891 21.4353 111.246 20.8287 111.402 20.066H115.276C114.964 21.7993 114.184 23.1687 112.936 24.174C111.705 25.1793 110.163 25.682 108.308 25.682C106.904 25.682 105.656 25.3873 104.564 24.798C103.472 24.1913 102.623 23.3333 102.016 22.224C101.409 21.1147 101.106 19.806 101.106 18.298C101.106 16.79 101.409 15.4813 102.016 14.372C102.623 13.2453 103.472 12.3873 104.564 11.798C105.656 11.2087 106.904 10.914 108.308 10.914ZM125.577 22.354V25.5H123.653C122.041 25.5 120.801 25.11 119.935 24.33C119.085 23.55 118.661 22.25 118.661 20.43V14.19H116.659V11.096H118.661V7.534H122.327V11.096H125.551V14.19H122.327V20.482C122.327 21.1753 122.465 21.6607 122.743 21.938C123.02 22.2153 123.488 22.354 124.147 22.354H125.577ZM141.995 11.096V25.5H138.329V22.588C137.947 23.5587 137.315 24.3213 136.431 24.876C135.564 25.4133 134.559 25.682 133.415 25.682C131.751 25.682 130.425 25.136 129.437 24.044C128.449 22.952 127.955 21.4267 127.955 19.468V11.096H131.595V19.052C131.595 20.196 131.889 21.0887 132.479 21.73C133.068 22.354 133.865 22.666 134.871 22.666C135.928 22.666 136.769 22.328 137.393 21.652C138.017 20.976 138.329 20.0053 138.329 18.74V11.096H141.995ZM150.294 10.914C152.045 10.914 153.449 11.356 154.506 12.24C155.563 13.124 156.222 14.3027 156.482 15.776H153.05C152.911 15.0827 152.599 14.528 152.114 14.112C151.629 13.696 150.996 13.488 150.216 13.488C149.592 13.488 149.107 13.6353 148.76 13.93C148.413 14.2247 148.24 14.6233 148.24 15.126C148.24 15.5247 148.379 15.8453 148.656 16.088C148.933 16.3307 149.28 16.5213 149.696 16.66C150.112 16.7987 150.71 16.9633 151.49 17.154C152.582 17.3967 153.466 17.6567 154.142 17.934C154.835 18.194 155.425 18.6187 155.91 19.208C156.413 19.78 156.664 20.56 156.664 21.548C156.664 22.7787 156.179 23.7753 155.208 24.538C154.255 25.3007 152.963 25.682 151.334 25.682C149.462 25.682 147.963 25.266 146.836 24.434C145.709 23.5847 145.025 22.38 144.782 20.82H148.292C148.379 21.5307 148.691 22.094 149.228 22.51C149.765 22.9087 150.467 23.108 151.334 23.108C151.958 23.108 152.435 22.9607 152.764 22.666C153.093 22.354 153.258 21.9553 153.258 21.47C153.258 21.054 153.111 20.716 152.816 20.456C152.539 20.196 152.183 19.9967 151.75 19.858C151.334 19.7193 150.736 19.5547 149.956 19.364C148.881 19.1213 148.006 18.8787 147.33 18.636C146.671 18.376 146.099 17.9687 145.614 17.414C145.146 16.8593 144.912 16.0967 144.912 15.126C144.912 13.878 145.389 12.864 146.342 12.084C147.295 11.304 148.613 10.914 150.294 10.914Z" fill="white"/>
</svg>
